<svg width="20" height="23" viewBox="0 0 20 23" fill="none" xmlns="http://www.w3.org/2000/svg">
<path d="M4.58333 19.8029H15.4167V19.5279C14.6583 18.8863 13.8188 18.4052 12.8979 18.0847C11.9771 17.7635 11.0111 17.6029 10 17.6029C8.98889 17.6029 8.02292 17.7635 7.10208 18.0847C6.18125 18.4052 5.34167 18.8863 4.58333 19.5279V19.8029ZM2.41667 18.5379C3.39167 17.5663 4.52483 16.8007 5.81617 16.2411C7.10678 15.6823 8.50139 15.4029 10 15.4029C11.4986 15.4029 12.8936 15.6823 14.1849 16.2411C15.4755 16.8007 16.6083 17.5663 17.5833 18.5379V4.40293H2.41667V18.5379ZM10 13.2029C8.95278 13.2029 8.05903 12.8271 7.31875 12.0754C6.57847 11.3238 6.20833 10.4163 6.20833 9.35293C6.20833 8.2896 6.57847 7.3821 7.31875 6.63043C8.05903 5.87876 8.95278 5.50293 10 5.50293C11.0472 5.50293 11.941 5.87876 12.6813 6.63043C13.4215 7.3821 13.7917 8.2896 13.7917 9.35293C13.7917 10.4163 13.4215 11.3238 12.6813 12.0754C11.941 12.8271 11.0472 13.2029 10 13.2029ZM10 11.0029C10.4514 11.0029 10.8349 10.8423 11.1505 10.5211C11.4668 10.2007 11.625 9.81126 11.625 9.35293C11.625 8.8946 11.4668 8.5052 11.1505 8.18473C10.8349 7.86353 10.4514 7.70293 10 7.70293C9.54861 7.70293 9.16511 7.86353 8.8495 8.18473C8.53317 8.5052 8.375 8.8946 8.375 9.35293C8.375 9.81126 8.53317 10.2007 8.8495 10.5211C9.16511 10.8423 9.54861 11.0029 10 11.0029ZM1.25 22.0029C0.697715 22.0029 0.25 21.5552 0.25 21.0029V3.20293C0.25 2.65065 0.697715 2.20293 1.25 2.20293H3.5V1.00293C3.5 0.450645 3.94772 0.00292969 4.5 0.00292969H4.66667C5.21895 0.00292969 5.66667 0.450645 5.66667 1.00293V2.20293H14.3333V1.00293C14.3333 0.450645 14.781 0.00292969 15.3333 0.00292969H15.5C16.0523 0.00292969 16.5 0.450645 16.5 1.00293V2.20293H18.75C19.3023 2.20293 19.75 2.65065 19.75 3.20293V21.0029C19.75 21.5552 19.3023 22.0029 18.75 22.0029H1.25Z" fill="#42526E"/>
</svg>
