<svg width="23" height="23" viewBox="0 0 23 23" fill="none" xmlns="http://www.w3.org/2000/svg">
<path d="M20.0016 0.169922H2.00159C0.897017 0.169922 0.00158691 1.0664 0.00158691 2.17097C0.00158691 2.19931 0.00158691 2.2192 0.00158691 2.2291V20.2291C0.00158691 21.301 0.871562 22.1699 1.94345 22.1699C1.97168 22.1699 1.99157 22.1699 2.00158 22.1699H20.0016C20.0116 22.1699 20.0315 22.1699 20.0597 22.1699C21.1316 22.1699 22.0016 21.301 22.0016 20.2291V2.22907C22.0016 2.21918 22.0016 2.19929 22.0016 2.17097C22.0016 1.0664 21.1061 0.169922 20.0016 0.169922ZM13.0016 20.2291H2.00159V12.2291H13.0016V20.2291ZM13.0016 10.2291H2.00159V2.2291L13.0016 2.22907V10.2291ZM20.0016 20.2291H15.0016V2.2291H20.0016V20.2291Z" fill="#42526E"/>
</svg>
